<?xml version="1.0" encoding="UTF-8"?><svg fill="#fff" id="b" xmlns="http://www.w3.org/2000/svg" width="256.34" height="105.58" viewBox="0 0 256.34 105.58"><defs><style>.e{fill:#fff;}.f{fill:#f2000c;}.g{fill:#fbc200;}</style></defs><g id="c"><g id="d"><rect x="84.65" y="0" width="7.52" height="99.68"/><polygon class="g" points="99.69 7.52 99.69 40.52 163.55 40.52 176.81 24.02 163.55 7.52 99.69 7.52"/><polygon class="g" points="77.12 7.52 77.12 40.52 13.26 40.52 0 24.02 13.26 7.52 77.12 7.52"/><path d="m211.34,74.63h4.19v-6.19c0-2.02.29-4.14,2.74-4.14.58,0,.96.05,1.41.16v-3.87h-.61c-2.42,0-3,1.22-3.85,2.71h-.05c-.03-.82-.08-1.67-.11-2.49h-3.82c.08.72.11,1.57.11,2.89v10.94Zm-2.69-6.83c0-7.22-4.75-7.22-6-7.22-3.96,0-6.13,3.37-6.13,7.09,0,4.22,2.15,7.17,7.01,7.17,1.43,0,3.03-.29,4.38-.8l-.08-3.16c-1.03.56-2.47,1.09-3.9,1.09-2.37,0-3.43-1.52-3.43-3.16h8.15v-1.01Zm-8.15-1.27c0-.74,0-3.4,2.15-3.4,1.73,0,2.18,1.65,2.18,3.4h-4.33Zm-15.51-2.61h5.13l-5.29,7.25v3.45h9.88v-3.13h-5.31l5.18-7.28v-3.42h-9.58v3.13Zm-7.02-5.5h4.19v-3.71h-4.19v3.71Zm0,16.2h4.19v-13.83h-4.19v13.83Zm-2.77-6.83c0-7.22-4.75-7.22-6-7.22-3.96,0-6.13,3.37-6.13,7.09,0,4.22,2.15,7.17,7.01,7.17,1.44,0,3.03-.29,4.38-.8l-.08-3.16c-1.03.56-2.47,1.09-3.9,1.09-2.37,0-3.43-1.52-3.43-3.16h8.15v-1.01Zm-8.15-1.27c0-.74,0-3.4,2.15-3.4,1.73,0,2.18,1.65,2.18,3.4h-4.33Zm-25.97-5.74l3.72,13.83h4.57l2.12-10.12h.05l2.26,10.12h4.46l3.69-13.83h-3.98l-1.94,9.85h-.05l-1.89-9.85h-4.78l-1.96,9.85h-.05l-2.02-9.85h-4.2Zm-13.41,13.83h4.19v-7.76c0-1.78.48-2.95,1.83-2.95.85,0,1.62.45,1.62,2.18v8.53h4.19v-9.06c0-2.76-1.01-4.99-4.06-4.99-1.51,0-3.06.72-3.54,2.26h-.05v-8.12h-4.19v19.92Zm-2.57-3.53c-.77.29-1.57.61-2.44.61-1.59,0-3.4-.93-3.4-3.85,0-.53,0-4.04,3.19-4.04.88,0,1.67.29,2.44.58l.21-3.16c-1.22-.32-1.96-.66-3.35-.66-4.41,0-6.85,3.02-6.85,7.28,0,2.52,1.19,6.98,6.53,6.98,1.33,0,2.58-.27,3.8-.58l-.13-3.16Zm-13.38-14.69c-1.59-.34-2.65-.64-4.35-.64-6.21,0-6.43,4.72-6.43,5.28,0,6.61,7.3,4.86,7.3,8.45,0,1.51-1.33,2.21-2.71,2.21-1.62,0-2.76-.64-4.06-1.14l-.24,3.61c.8.24,2.73.77,4.99.77,3.69,0,6.48-2.12,6.48-5.63,0-6.59-7.3-5.02-7.3-8.39,0-1.38,1.06-2.02,2.47-2.02,1.17,0,2.63.42,3.66.96l.19-3.45Z"/><path d="m256.34,92.86c0-7.22-4.75-7.22-6-7.22-3.96,0-6.13,3.37-6.13,7.09,0,4.22,2.15,7.17,7.01,7.17,1.44,0,3.03-.29,4.38-.8l-.08-3.16c-1.03.56-2.47,1.09-3.9,1.09-2.37,0-3.43-1.52-3.43-3.16h8.15v-1.01Zm-8.15-1.27c0-.74,0-3.4,2.15-3.4,1.73,0,2.18,1.65,2.18,3.4h-4.33Zm-6.63-2.63c0-1.75.05-2.47.11-3.1h-3.98l-.11,2.2h-.05c-.37-.85-1.3-2.41-3.72-2.41-3.16,0-4.91,2.73-4.91,7.14,0,5.21,2.47,6.9,4.88,6.9s3.4-1.7,3.64-2.44h.05c0,2.87-.13,5.31-3.46,5.31-1.91,0-3.64-.85-4.35-1.22l-.13,3.43c1.33.4,3.02.82,4.99.82,6.98,0,7.04-5.55,7.04-7.57v-9.06Zm-8.31,3.8c0-1.43.11-4.09,2.05-4.09,1.7,0,2.07,2.5,2.07,4.09,0,1.94-.4,3.99-2.1,3.99-1.86,0-2.02-2.9-2.02-3.99m-6.62.11c0-7.22-4.75-7.22-6-7.22-3.96,0-6.13,3.37-6.13,7.09,0,4.22,2.15,7.17,7.01,7.17,1.43,0,3.03-.29,4.38-.8l-.08-3.16c-1.04.56-2.47,1.09-3.9,1.09-2.37,0-3.43-1.52-3.43-3.16h8.15v-1.01Zm-8.15-1.27c0-.74,0-3.4,2.15-3.4,1.73,0,2.18,1.65,2.18,3.4h-4.33Zm-25.97-5.74l3.72,13.83h4.57l2.12-10.12h.05l2.26,10.12h4.46l3.69-13.83h-3.98l-1.94,9.85h-.05l-1.88-9.85h-4.78l-1.96,9.85h-.05l-2.02-9.85h-4.2Zm-9.75,13.83h4.19v-6.19c0-2.02.29-4.14,2.74-4.14.58,0,.96.05,1.41.16v-3.87h-.61c-2.42,0-3,1.22-3.85,2.71h-.05c-.03-.82-.08-1.67-.11-2.49h-3.82c.08.72.11,1.57.11,2.89v10.94Zm-2.69-6.82c0-7.22-4.75-7.22-6-7.22-3.96,0-6.13,3.37-6.13,7.09,0,4.22,2.15,7.17,7.01,7.17,1.43,0,3.03-.29,4.38-.8l-.08-3.16c-1.03.56-2.47,1.09-3.9,1.09-2.37,0-3.43-1.52-3.43-3.16h8.15v-1.01Zm-8.15-1.27c0-.74,0-3.4,2.15-3.4,1.73,0,2.18,1.65,2.18,3.4h-4.33Zm-14.94,1.19c0-2.21.16-4.28,2.02-4.28,1.7,0,2.1,2.07,2.1,4.28,0,1.59-.37,4.09-2.1,4.09-1.91,0-2.02-2.66-2.02-4.09m8.31-13.01h-4.19v8.12h-.05c-.51-1.25-1.62-2.26-3.56-2.26-3.48,0-4.86,3.08-4.86,6.8,0,4.41,1.75,7.46,4.86,7.46,2.42,0,3.35-1.57,3.77-2.41h.05c0,.95.05,1.67.11,2.2h3.98c-.05-.64-.11-1.35-.11-3.1v-16.81Zm-19.59,19.92h4.19v-9.06c0-2.76-1.01-4.99-4.06-4.99-2.21,0-3.27,1.01-3.91,2.52h-.05c0-.93-.05-1.7-.11-2.31h-3.82c.08.72.11,1.57.11,2.89v10.94h4.19v-7.76c0-1.78.48-2.95,1.83-2.95.85,0,1.62.45,1.62,2.18v8.52Zm-14.59-5.87c0,3.38-2.13,3.43-2.5,3.43-.35,0-1.81,0-1.81-1.81,0-2.31,2.63-2.42,4.31-2.42v.8Zm-6.43-4.2c1.64-.98,2.79-1.22,3.85-1.22.61,0,2.58,0,2.58,2.66h-1.28c-1.46,0-6.85.03-6.85,4.65,0,2.52,1.7,4.19,4.27,4.19,1.99,0,3.61-1.27,3.8-2.12h.05l.11,1.91h3.82c-.08-.93-.11-1.86-.11-3.9v-5.05c0-3.08-1.11-5.1-5.97-5.1-1.52,0-3.37.53-4.46.88l.19,3.11Zm-11.24,10.06h5.1l3.64-18.53h-3.82l-2.39,13.17h-.05l-2.26-13.17h-5.1l-2.2,13.17h-.05l-2.23-13.17h-4.2l3.72,18.53h5.1l2.31-14.39h.05l2.39,14.39Z"/><rect class="f" x="32.16" y="54.72" width="44.96" height="44.96"/><polygon class="e" points="68.54 73.31 58.78 73.31 58.78 63.54 50.16 63.54 50.16 73.31 40.39 73.31 40.39 81.93 50.16 81.93 50.16 91.69 58.78 91.69 58.78 81.93 68.54 81.93 68.54 73.31"/></g></g></svg>